<svg width="207" height="79" viewBox="0 0 207 79" fill="none" xmlns="http://www.w3.org/2000/svg">
<rect x="10" y="10" width="59" height="59" rx="29.5" fill="black"/>
<path d="M21.776 30.912H29.576C31.368 30.912 32.736 31.304 33.68 32.088C34.64 32.856 35.12 33.896 35.12 35.208C35.12 36.024 34.896 36.76 34.448 37.416C34 38.056 33.408 38.52 32.672 38.808C33.664 39.048 34.448 39.528 35.024 40.248C35.6 40.968 35.888 41.872 35.888 42.96C35.888 44.464 35.384 45.68 34.376 46.608C33.384 47.536 32.088 48 30.488 48H21.776V30.912ZM24.704 33.336V38.04H28.784C29.936 38.04 30.784 37.864 31.328 37.512C31.872 37.144 32.144 36.536 32.144 35.688C32.144 34.728 31.856 34.096 31.28 33.792C30.72 33.488 29.92 33.336 28.88 33.336H24.704ZM24.704 40.2V45.552H29.192C30.344 45.552 31.248 45.36 31.904 44.976C32.56 44.592 32.888 43.896 32.888 42.888C32.888 42.328 32.784 41.864 32.576 41.496C32.384 41.112 32.096 40.832 31.712 40.656C31.344 40.48 30.96 40.36 30.56 40.296C30.16 40.232 29.688 40.2 29.144 40.2H24.704ZM56.4584 30.912V48H53.6024V34.824L48.8504 48H46.4024L41.5304 34.824V48H38.6984V30.912H42.8984L47.6744 44.28L52.2824 30.912H56.4584Z" fill="white"/>
<line x1="79.5" y1="10" x2="79.5" y2="69" stroke="black"/>
<path d="M91.88 34.18V35.64C92.6267 34.4533 93.7867 33.86 95.36 33.86C96.8 33.86 97.94 34.3467 98.78 35.32C99.6333 36.2933 100.06 37.6133 100.06 39.28C100.06 40.9467 99.64 42.28 98.8 43.28C97.9733 44.2667 96.8533 44.76 95.44 44.76C93.96 44.76 92.8067 44.1933 91.98 43.06V48.48H90.28V34.18H91.88ZM95.1 35.28C94.1133 35.28 93.3333 35.64 92.76 36.36C92.2 37.0667 91.92 38.0467 91.92 39.3C91.92 40.5533 92.2067 41.54 92.78 42.26C93.3667 42.9667 94.16 43.32 95.16 43.32C96.1333 43.32 96.9 42.96 97.46 42.24C98.02 41.52 98.3 40.54 98.3 39.3C98.3 38.0467 98.0133 37.0667 97.44 36.36C96.88 35.64 96.1 35.28 95.1 35.28ZM103.835 30.26V35.64C104.595 34.4933 105.722 33.92 107.215 33.92C109.535 33.92 110.695 35.0933 110.695 37.44V44.5H108.995V37.84C108.995 37.0533 108.829 36.4533 108.495 36.04C108.175 35.6133 107.589 35.4 106.735 35.4C105.695 35.4 104.949 35.7333 104.495 36.4C104.055 37.0667 103.835 38.02 103.835 39.26V44.5H102.135V30.26H103.835ZM114.069 35.36C114.975 34.3733 116.209 33.88 117.769 33.88C119.329 33.88 120.542 34.3533 121.409 35.3C122.275 36.2467 122.709 37.5733 122.709 39.28C122.709 41.0267 122.275 42.3867 121.409 43.36C120.542 44.3333 119.322 44.82 117.749 44.82C116.175 44.82 114.942 44.34 114.049 43.38C113.155 42.42 112.709 41.0867 112.709 39.38C112.709 37.6867 113.162 36.3467 114.069 35.36ZM120.089 36.4C119.515 35.6667 118.729 35.3 117.729 35.3C116.729 35.3 115.935 35.6667 115.349 36.4C114.762 37.1333 114.469 38.1133 114.469 39.34C114.469 40.6067 114.755 41.6 115.329 42.32C115.915 43.0267 116.729 43.38 117.769 43.38C118.769 43.38 119.549 43.02 120.109 42.3C120.682 41.58 120.969 40.5867 120.969 39.32C120.969 38.0933 120.675 37.12 120.089 36.4ZM129.153 34.18V35.58H127.093V41.6C127.093 41.9333 127.093 42.1533 127.093 42.26C127.106 42.3667 127.146 42.5133 127.213 42.7C127.28 42.8733 127.393 42.9867 127.553 43.04C127.713 43.0933 127.94 43.12 128.233 43.12C128.486 43.12 128.793 43.1 129.153 43.06V44.52C128.673 44.5733 128.24 44.6 127.853 44.6C127.373 44.6 126.973 44.5467 126.653 44.44C126.333 44.3333 126.086 44.2133 125.913 44.08C125.753 43.9467 125.633 43.7133 125.553 43.38C125.473 43.0333 125.426 42.7467 125.413 42.52C125.4 42.28 125.393 41.8867 125.393 41.34C125.393 41.3 125.393 41.2733 125.393 41.26C125.393 41.2333 125.393 41.2 125.393 41.16C125.393 41.12 125.393 41.0867 125.393 41.06V35.58H123.653V34.18H125.393V31.12H127.093V34.18H129.153ZM131.862 35.36C132.768 34.3733 134.002 33.88 135.562 33.88C137.122 33.88 138.335 34.3533 139.202 35.3C140.068 36.2467 140.502 37.5733 140.502 39.28C140.502 41.0267 140.068 42.3867 139.202 43.36C138.335 44.3333 137.115 44.82 135.542 44.82C133.968 44.82 132.735 44.34 131.842 43.38C130.948 42.42 130.502 41.0867 130.502 39.38C130.502 37.6867 130.955 36.3467 131.862 35.36ZM137.882 36.4C137.308 35.6667 136.522 35.3 135.522 35.3C134.522 35.3 133.728 35.6667 133.142 36.4C132.555 37.1333 132.262 38.1133 132.262 39.34C132.262 40.6067 132.548 41.6 133.122 42.32C133.708 43.0267 134.522 43.38 135.562 43.38C136.562 43.38 137.342 43.02 137.902 42.3C138.475 41.58 138.762 40.5867 138.762 39.32C138.762 38.0933 138.468 37.12 137.882 36.4ZM150.186 37.18H148.486C148.379 35.9267 147.539 35.3 145.966 35.3C145.313 35.3 144.799 35.4267 144.426 35.68C144.053 35.9333 143.866 36.2733 143.866 36.7C143.866 36.82 143.879 36.94 143.906 37.06C143.933 37.1667 143.979 37.2667 144.046 37.36C144.126 37.44 144.193 37.5133 144.246 37.58C144.313 37.6467 144.413 37.7133 144.546 37.78C144.693 37.8333 144.799 37.88 144.866 37.92C144.946 37.96 145.079 38.0067 145.266 38.06C145.466 38.1 145.606 38.1333 145.686 38.16C145.766 38.1733 145.919 38.2067 146.146 38.26C146.386 38.3133 146.539 38.3467 146.606 38.36C147.099 38.4667 147.466 38.5533 147.706 38.62C147.959 38.6867 148.299 38.8133 148.726 39C149.166 39.1733 149.499 39.36 149.726 39.56C149.953 39.7467 150.153 40.0133 150.326 40.36C150.513 40.6933 150.606 41.0733 150.606 41.5C150.606 42.5 150.213 43.3067 149.426 43.92C148.653 44.52 147.619 44.82 146.326 44.82C144.926 44.82 143.846 44.5133 143.086 43.9C142.339 43.2867 141.939 42.4 141.886 41.24H143.566C143.659 42.6933 144.593 43.42 146.366 43.42C147.126 43.42 147.733 43.2667 148.186 42.96C148.653 42.64 148.886 42.22 148.886 41.7C148.886 41.3533 148.766 41.0667 148.526 40.84C148.286 40.6133 148.019 40.4533 147.726 40.36C147.433 40.2533 147.013 40.1333 146.466 40C146.386 39.9867 146.326 39.9733 146.286 39.96C146.166 39.9333 145.906 39.88 145.506 39.8C145.119 39.7067 144.839 39.6333 144.666 39.58C144.493 39.5267 144.239 39.4467 143.906 39.34C143.586 39.22 143.346 39.1 143.186 38.98C143.026 38.8467 142.846 38.6867 142.646 38.5C142.459 38.3 142.326 38.0733 142.246 37.82C142.166 37.5533 142.126 37.2533 142.126 36.92C142.126 35.9867 142.479 35.2467 143.186 34.7C143.906 34.1533 144.866 33.88 146.066 33.88C147.279 33.88 148.266 34.1667 149.026 34.74C149.799 35.3133 150.186 36.1267 150.186 37.18ZM156.946 34.18V35.58H154.886V41.6C154.886 41.9333 154.886 42.1533 154.886 42.26C154.899 42.3667 154.939 42.5133 155.006 42.7C155.073 42.8733 155.186 42.9867 155.346 43.04C155.506 43.0933 155.733 43.12 156.026 43.12C156.279 43.12 156.586 43.1 156.946 43.06V44.52C156.466 44.5733 156.033 44.6 155.646 44.6C155.166 44.6 154.766 44.5467 154.446 44.44C154.126 44.3333 153.879 44.2133 153.706 44.08C153.546 43.9467 153.426 43.7133 153.346 43.38C153.266 43.0333 153.219 42.7467 153.206 42.52C153.193 42.28 153.186 41.8867 153.186 41.34C153.186 41.3 153.186 41.2733 153.186 41.26C153.186 41.2333 153.186 41.2 153.186 41.16C153.186 41.12 153.186 41.0867 153.186 41.06V35.58H151.446V34.18H153.186V31.12H154.886V34.18H156.946ZM167.395 34.18V44.5H165.815V42.88C164.935 44.1467 163.748 44.78 162.255 44.78C161.161 44.78 160.315 44.48 159.715 43.88C159.115 43.28 158.815 42.4133 158.815 41.28V34.18H160.515V40.82C160.515 41.6333 160.668 42.2533 160.975 42.68C161.295 43.0933 161.861 43.3 162.675 43.3C164.688 43.3 165.695 42.06 165.695 39.58V34.18H167.395ZM179.248 30.26V44.5H177.648V42.98C176.995 44.18 175.861 44.78 174.248 44.78C172.781 44.78 171.615 44.2933 170.748 43.32C169.895 42.3333 169.468 41 169.468 39.32C169.468 37.76 169.868 36.4667 170.668 35.44C171.481 34.4 172.648 33.88 174.168 33.88C175.648 33.88 176.775 34.44 177.548 35.56V30.26H179.248ZM174.388 35.34C173.415 35.34 172.641 35.6933 172.068 36.4C171.508 37.1067 171.228 38.0667 171.228 39.28C171.228 40.5333 171.515 41.5333 172.088 42.28C172.675 43.0133 173.455 43.38 174.428 43.38C175.415 43.38 176.188 43.0267 176.748 42.32C177.308 41.6 177.588 40.6067 177.588 39.34C177.588 38.2067 177.321 37.26 176.788 36.5C176.268 35.7267 175.468 35.34 174.388 35.34ZM183.603 30.26V32.34H181.883V30.26H183.603ZM183.603 34.18V44.5H181.883V34.18H183.603ZM187.057 35.36C187.964 34.3733 189.197 33.88 190.757 33.88C192.317 33.88 193.53 34.3533 194.397 35.3C195.264 36.2467 195.697 37.5733 195.697 39.28C195.697 41.0267 195.264 42.3867 194.397 43.36C193.53 44.3333 192.31 44.82 190.737 44.82C189.164 44.82 187.93 44.34 187.037 43.38C186.144 42.42 185.697 41.0867 185.697 39.38C185.697 37.6867 186.15 36.3467 187.057 35.36ZM193.077 36.4C192.504 35.6667 191.717 35.3 190.717 35.3C189.717 35.3 188.924 35.6667 188.337 36.4C187.75 37.1333 187.457 38.1133 187.457 39.34C187.457 40.6067 187.744 41.6 188.317 42.32C188.904 43.0267 189.717 43.38 190.757 43.38C191.757 43.38 192.537 43.02 193.097 42.3C193.67 41.58 193.957 40.5867 193.957 39.32C193.957 38.0933 193.664 37.12 193.077 36.4Z" fill="black"/>
</svg>
